<svg id="svg" version="1.1" xmlns="http://www.w3.org/2000/svg" xmlns:xlink="http://www.w3.org/1999/xlink" width="400" height="103.75" viewBox="0, 0, 400,103.75"><g id="svgg"><path id="path0" d="M76.049 0.622 C 74.364 1.302,74.375 1.204,74.375 16.197 C 74.375 29.178,74.341 30.054,73.838 29.861 C 70.703 28.658,2.963 6.875,2.357 6.875 C 0.233 6.875,-1.058 10.501,0.466 12.185 C 0.727 12.473,15.561 17.448,34.047 23.447 C 52.259 29.358,67.123 34.231,67.078 34.276 C 67.032 34.322,56.598 37.728,43.890 41.847 C 18.983 49.918,19.375 49.757,19.375 51.908 C 19.375 54.361,19.278 54.310,31.325 58.234 C 37.385 60.207,47.863 63.620,54.609 65.818 C 61.355 68.015,66.872 69.890,66.869 69.985 C 66.865 70.079,52.135 74.920,34.134 80.743 C -3.236 92.831,-0.000 91.554,0.000 94.208 C 0.000 98.561,-1.870 98.968,38.761 85.782 C 58.091 79.509,74.012 74.376,74.141 74.376 C 74.270 74.375,74.375 80.573,74.375 88.149 L 74.375 101.923 75.288 102.837 C 76.272 103.820,77.891 104.064,79.109 103.412 C 80.545 102.644,80.625 101.809,80.625 87.666 C 80.625 80.356,80.701 74.375,80.793 74.375 C 80.885 74.375,96.777 79.508,116.109 85.781 C 138.628 93.089,151.710 97.188,152.517 97.188 C 154.303 97.188,155.313 96.133,155.313 94.268 C 155.312 91.816,156.980 92.470,121.250 80.907 C 103.117 75.039,88.182 70.148,88.060 70.038 C 87.939 69.929,98.204 66.487,110.873 62.390 C 136.181 54.205,135.625 54.439,135.625 52.002 C 135.625 49.741,135.979 49.887,110.713 41.740 L 87.519 34.262 120.713 23.514 C 147.713 14.772,154.037 12.622,154.609 11.991 C 156.215 10.219,154.948 6.869,152.676 6.880 C 152.149 6.882,135.758 12.062,116.250 18.390 L 80.781 29.896 80.625 16.120 C 80.457 1.331,80.464 1.392,78.830 0.647 C 77.968 0.254,76.983 0.245,76.049 0.622 M190.907 23.907 C 181.786 25.725,174.072 31.955,170.642 40.272 C 166.557 50.178,168.124 63.393,174.357 71.602 C 183.212 83.263,203.963 85.066,214.413 75.081 C 217.380 72.247,217.418 72.639,213.825 68.927 C 210.265 65.250,210.114 65.224,206.429 67.650 C 196.897 73.927,185.603 69.405,182.640 58.125 C 178.212 41.269,193.138 28.574,207.324 37.130 C 210.959 39.322,211.700 39.040,215.516 34.001 L 217.878 30.881 216.830 29.967 C 210.433 24.388,200.336 22.028,190.907 23.907 M229.314 51.795 C 223.351 67.222,218.379 80.090,218.265 80.391 C 218.073 80.899,218.457 80.938,223.727 80.938 C 231.999 80.938,231.916 80.996,234.538 73.359 L 236.335 68.125 247.002 68.125 L 257.670 68.125 259.467 73.546 C 261.960 81.068,261.774 80.938,270.054 80.938 L 275.693 80.938 275.512 80.234 C 275.413 79.848,270.485 67.016,264.562 51.719 L 253.792 23.906 246.974 23.827 L 240.156 23.747 229.314 51.795 M280.000 52.298 L 280.000 80.938 285.935 80.938 L 291.870 80.938 291.951 63.300 L 292.031 45.663 304.936 62.003 C 321.360 82.798,319.289 80.937,326.014 80.938 L 330.000 80.938 330.000 52.344 L 330.000 23.750 324.065 23.750 L 318.130 23.750 318.049 41.504 L 317.969 59.258 304.531 42.236 C 297.141 32.874,290.723 24.939,290.270 24.604 C 289.568 24.084,288.752 23.969,284.723 23.827 L 280.000 23.659 280.000 52.298 M386.875 52.344 L 386.875 80.938 393.438 80.938 L 400.000 80.938 400.000 52.344 L 400.000 23.750 393.438 23.750 L 386.875 23.750 386.875 52.344 M335.000 29.375 L 335.000 34.688 342.969 34.688 L 350.938 34.688 350.938 57.813 L 350.938 80.938 357.656 80.938 L 364.375 80.938 364.375 57.813 L 364.375 34.688 372.344 34.688 L 380.313 34.688 380.313 29.375 L 380.313 24.063 357.656 24.063 L 335.000 24.063 335.000 29.375 M254.375 58.811 C 254.375 58.950,251.008 59.063,246.892 59.063 L 239.409 59.063 243.189 47.839 L 246.970 36.616 250.672 47.588 C 252.709 53.623,254.375 58.673,254.375 58.811 M74.272 65.519 C 74.212 65.580,64.792 62.580,53.339 58.854 L 32.515 52.079 53.367 45.322 L 74.219 38.565 74.300 51.988 C 74.345 59.370,74.332 65.459,74.272 65.519 M101.646 45.368 C 112.950 49.016,122.021 52.096,121.803 52.212 C 121.585 52.329,112.426 55.335,101.450 58.892 C 90.473 62.449,81.298 65.434,81.059 65.525 C 80.693 65.666,80.625 63.586,80.625 52.221 C 80.625 44.812,80.730 38.747,80.859 38.743 C 80.988 38.740,90.342 41.721,101.646 45.368 " stroke="none" fill="#FF0000" fill-rule="evenodd"></path></g></svg>