<svg id="svg" xmlns="http://www.w3.org/2000/svg" xmlns:xlink="http://www.w3.org/1999/xlink" width="400" height="268.3853459972863" viewBox="0, 0, 400,268.3853459972863"><g id="svgg"><path id="path0" d="M197.368 1.532 C 196.044 2.001,194.241 3.702,193.397 5.278 L 192.809 6.377 192.673 41.955 L 192.537 77.534 100.271 47.575 C 9.761 18.186,7.971 17.618,6.214 17.724 C 4.094 17.852,2.006 18.857,0.785 20.338 L 0.000 21.291 0.000 25.199 C -0.000 29.665,0.222 30.308,2.247 31.711 C 3.075 32.285,25.529 39.672,89.059 60.272 C 136.191 75.555,174.755 88.130,174.758 88.215 C 174.760 88.300,148.233 96.957,115.807 107.451 C 83.382 117.946,56.195 126.775,55.392 127.071 C 49.486 129.249,48.641 137.484,53.983 140.803 C 54.811 141.318,75.104 148.019,114.990 160.950 C 147.861 171.607,174.757 180.394,174.759 180.477 C 174.761 180.561,136.632 193.000,90.027 208.120 C -6.441 239.418,2.710 236.353,1.179 237.884 L 0.000 239.063 -0.000 243.228 L -0.000 247.392 0.933 248.482 C 2.356 250.145,4.724 251.108,7.018 250.957 C 8.479 250.861,26.125 245.220,100.483 221.077 C 150.898 204.709,192.265 191.316,192.410 191.316 C 192.578 191.316,192.673 203.952,192.673 226.424 C 192.673 265.206,192.561 262.722,194.409 264.977 C 197.952 269.301,204.856 268.403,207.374 263.291 L 208.005 262.008 208.079 226.634 L 208.153 191.260 208.758 191.418 C 209.090 191.505,250.393 204.899,300.543 221.182 C 365.761 242.359,392.200 250.831,393.397 250.939 C 395.446 251.122,397.379 250.505,398.938 249.170 L 400.000 248.262 400.000 243.284 L 400.000 238.306 398.872 237.340 C 397.925 236.529,396.673 236.027,391.070 234.211 C 286.516 200.330,225.847 180.561,225.998 180.421 C 226.102 180.324,252.992 171.547,285.753 160.917 C 318.514 150.287,345.826 141.301,346.447 140.948 C 350.871 138.428,351.494 132.021,347.653 128.551 C 346.178 127.219,351.837 129.121,285.295 107.584 C 252.581 96.995,225.898 88.254,226.001 88.159 C 226.103 88.064,264.288 75.637,310.855 60.541 C 407.006 29.373,397.601 32.498,398.956 31.273 L 400.000 30.330 400.000 25.392 L 400.000 20.454 399.254 19.749 C 397.951 18.519,396.304 17.843,394.349 17.736 C 392.574 17.639,390.686 18.238,300.407 47.564 L 208.277 77.490 208.141 42.069 L 208.005 6.649 207.393 5.503 C 205.362 1.702,201.361 0.117,197.368 1.532 M192.607 152.062 L 192.537 169.796 138.263 152.175 C 108.412 142.484,83.899 134.468,83.789 134.363 C 83.679 134.258,108.102 126.235,138.063 116.534 L 192.537 98.895 192.607 116.612 C 192.645 126.356,192.645 142.309,192.607 152.062 M263.089 116.720 C 292.718 126.318,316.959 134.237,316.957 134.318 C 316.956 134.398,299.096 140.260,277.270 147.344 C 255.443 154.428,230.960 162.380,222.863 165.015 L 208.141 169.806 208.141 134.396 C 208.141 99.226,208.145 98.988,208.679 99.128 C 208.975 99.205,233.459 107.121,263.089 116.720 " stroke="none" fill="#FF0000" fill-rule="evenodd"></path></g></svg>