<?xml version="1.0" encoding="utf-8"?>
<svg viewBox="0 0 64 64" fill="#FFFFFF" xmlns="http://www.w3.org/2000/svg">
  <path d="M 32 0 C 14.327 0 0 14.327 0 32 C 0 47.111 10.476 59.766 24.559 63.122 C 23.831 62.947 23.108 62.753 22.4 62.531 L 22.4 55.2 C 22.4 55.2 21.199 55.599 19.599 55.599 C 15.124 55.599 13.263 51.606 12.8 49.6 C 12.518 48.377 11.782 47.22 10.991 46.511 C 10.048 45.671 9.606 45.667 9.6 45.379 C 9.588 44.776 10.41 44.8 10.799 44.8 C 12.8 44.8 14.316 46.927 15.02 48.029 C 16.765 50.744 18.636 51.2 19.599 51.2 C 20.8 51.2 21.836 51.02 22.55 50.676 C 22.88 48.352 23.914 46.282 25.6 44.8 C 18.095 43.299 12.8 38.996 12.8 32 C 12.8 28.396 14.246 25.085 16.655 22.41 C 16.41 21.711 16 20.3 16 17.999 C 16 16.48 16.106 14.614 16.8 12.8 C 16.8 12.8 21.364 12.832 25.667 16.908 C 27.654 16.33 29.78 16 32 16 C 34.22 16 36.346 16.33 38.333 16.908 C 42.636 12.832 47.2 12.8 47.2 12.8 C 47.898 14.614 48 16.48 48 17.999 C 48 20.48 47.67 21.927 47.468 22.55 C 49.804 25.199 51.2 28.46 51.2 32 C 51.2 38.996 45.903 43.299 38.4 44.8 C 40.404 46.56 41.6 49.123 41.6 52 L 41.6 62.531 C 40.892 62.754 40.17 62.947 39.439 63.122 C 53.524 59.766 64 47.111 64 32 C 64 14.327 49.673 0 32 0 Z M 34.231 63.914 C 33.494 63.966 32.75 64 32 64 C 32.75 64 33.493 63.965 34.231 63.914 Z M 39.122 63.196 C 37.689 63.521 36.221 63.751 34.721 63.876 C 36.221 63.751 37.689 63.52 39.122 63.196 Z M 32 64 C 31.25 64 30.506 63.966 29.769 63.914 C 30.507 63.965 31.25 64 32 64 Z M 29.278 63.876 C 27.779 63.751 26.31 63.521 24.878 63.196 C 26.311 63.52 27.779 63.751 29.278 63.876 Z" style=""/>
</svg>