<svg id="svg" xmlns="http://www.w3.org/2000/svg" xmlns:xlink="http://www.w3.org/1999/xlink" width="400" height="400" viewBox="0, 0, 400,400"><g id="svgg"><path id="path0" d="M32.492 95.208 C 23.766 101.147,23.766 112.186,32.492 118.125 L 35.246 120.000 200.000 120.000 L 364.754 120.000 367.508 118.125 C 376.234 112.186,376.234 101.147,367.508 95.208 L 364.754 93.333 200.000 93.333 L 35.246 93.333 32.492 95.208 M32.492 188.542 C 23.766 194.481,23.766 205.519,32.492 211.458 L 35.246 213.333 200.000 213.333 L 364.754 213.333 367.508 211.458 C 376.234 205.519,376.234 194.481,367.508 188.542 L 364.754 186.667 200.000 186.667 L 35.246 186.667 32.492 188.542 M32.492 281.875 C 23.766 287.814,23.766 298.853,32.492 304.792 L 35.246 306.667 200.000 306.667 L 364.754 306.667 367.508 304.792 C 376.234 298.853,376.234 287.814,367.508 281.875 L 364.754 280.000 200.000 280.000 L 35.246 280.000 32.492 281.875 " stroke="none" fill="#FFFFFF" fill-rule="evenodd"></path></g></svg>