<svg id="svg" xmlns="http://www.w3.org/2000/svg" xmlns:xlink="http://www.w3.org/1999/xlink" width="400" height="400" viewBox="0, 0, 400,400"><g id="svgg"><path id="path0" d="M174.609 1.194 C 8.750 22.804,-59.514 227.069,60.256 343.370 C 173.155 452.998,362.812 395.808,395.987 242.132 C 424.984 107.814,310.724 -16.541,174.609 1.194 M128.682 87.610 C 138.634 91.291,145.024 101.289,144.340 112.109 C 142.491 141.362,96.111 143.662,91.242 114.743 C 87.881 94.785,108.224 80.042,128.682 87.610 M275.290 154.290 C 290.354 157.481,302.365 167.050,309.246 181.344 C 316.694 196.814,317.188 201.551,317.188 257.597 L 317.188 302.344 293.417 302.344 L 269.646 302.344 269.323 258.398 C 268.972 210.597,268.911 209.892,264.427 201.653 C 255.204 184.708,229.450 187.360,219.778 206.250 L 217.578 210.547 217.353 256.445 L 217.128 302.344 193.330 302.344 L 169.531 302.344 169.531 229.297 L 169.531 156.250 193.359 156.250 L 217.188 156.250 217.188 166.406 C 217.188 177.844,217.319 178.055,221.038 172.574 C 231.596 157.013,253.424 149.657,275.290 154.290 M141.406 229.297 L 141.406 302.344 117.578 302.344 L 93.750 302.344 93.750 229.297 L 93.750 156.250 117.578 156.250 L 141.406 156.250 141.406 229.297 " stroke="none" fill="#FFFFFF" fill-rule="evenodd"></path></g></svg>